<svg width="32" height="32" viewBox="0 0 32 32" fill="none" xmlns="http://www.w3.org/2000/svg">
<path d="M15.9854 19.4083L19.2268 23.0936C20.4277 24.4589 21.0282 25.1416 21.6567 24.9754C22.2852 24.8092 22.5008 23.9108 22.9318 22.1138L25.3229 12.1459C25.9868 9.37832 26.3187 7.99454 25.5808 7.312C24.843 6.62947 23.564 7.13725 21.0061 8.15282L9.13876 12.8645C7.09293 13.6767 6.07001 14.0829 6.00507 14.7808C5.99842 14.8522 5.99831 14.9241 6.00474 14.9955C6.06754 15.6937 7.08921 16.1033 9.13255 16.9223C10.0584 17.2934 10.5213 17.479 10.8532 17.8344C10.8905 17.8743 10.9264 17.9157 10.9608 17.9584C11.2666 18.3384 11.3971 18.8371 11.6581 19.8344L12.1465 21.701C12.4005 22.6715 12.5275 23.1568 12.8601 23.223C13.1927 23.2891 13.4822 22.8867 14.0614 22.0819L15.9854 19.4083ZM15.9854 19.4083L15.6676 19.0771C15.3059 18.7001 15.1251 18.5117 15.1251 18.2775C15.1251 18.0433 15.3059 17.8548 15.6676 17.4778L19.2406 13.7541" stroke="#4F5563" stroke-width="1.5" stroke-linecap="round" stroke-linejoin="round"/>
</svg>
