<svg width="32" height="32" viewBox="0 0 32 32" fill="none" xmlns="http://www.w3.org/2000/svg">
<path fill-rule="evenodd" clip-rule="evenodd" d="M10.1818 14.3333C9.20406 14.3333 9 14.5252 9 15.4444V17.1111C9 18.0304 9.20406 18.2222 10.1818 18.2222H12.5455V24.8889C12.5455 25.8081 12.7495 26 13.7273 26H16.0909C17.0687 26 17.2727 25.8081 17.2727 24.8889V18.2222H19.9267C20.6683 18.2222 20.8594 18.0867 21.0631 17.4164L21.5696 15.7497C21.9185 14.6014 21.7035 14.3333 20.4332 14.3333H17.2727V11.5556C17.2727 10.9419 17.8018 10.4444 18.4545 10.4444H21.8182C22.7959 10.4444 23 10.2526 23 9.33333V7.11111C23 6.19185 22.7959 6 21.8182 6H18.4545C15.191 6 12.5455 8.48731 12.5455 11.5556V14.3333H10.1818Z" stroke="#4F5563" stroke-width="1.5" stroke-linejoin="round"/>
</svg>
