<svg width="32" height="32" viewBox="0 0 32 32" fill="none" xmlns="http://www.w3.org/2000/svg">
<path d="M6.50012 16C6.50012 11.5217 6.50012 9.28249 7.89136 7.89124C9.28261 6.5 11.5218 6.5 16.0001 6.5C20.4785 6.5 22.7176 6.5 24.1089 7.89124C25.5001 9.28249 25.5001 11.5217 25.5001 16C25.5001 20.4783 25.5001 22.7175 24.1089 24.1088C22.7176 25.5 20.4785 25.5 16.0001 25.5C11.5218 25.5 9.28261 25.5 7.89136 24.1088C6.50012 22.7175 6.50012 20.4783 6.50012 16Z" stroke="#4F5563" stroke-width="1.5" stroke-linecap="round" stroke-linejoin="round"/>
<path d="M11.0001 21L15.1937 16.8065M15.1937 16.8065L11.0001 11H13.7779L16.8066 15.1935M15.1937 16.8065L18.2223 21H21.0001L16.8066 15.1935M21.0001 11L16.8066 15.1935" stroke="#4F5563" stroke-width="1.5" stroke-linecap="round" stroke-linejoin="round"/>
</svg>
