<svg width="32" height="32" viewBox="0 0 32 32" fill="none" xmlns="http://www.w3.org/2000/svg">
<path d="M16 24.5C17.8097 24.5 19.5451 24.3212 21.1534 23.9934C23.1623 23.5839 24.1668 23.3791 25.0834 22.2006C26 21.0221 26 19.6693 26 16.9635V15.0365C26 12.3307 26 10.9779 25.0834 9.79937C24.1668 8.62088 23.1623 8.41613 21.1534 8.00662C19.5451 7.67877 17.8097 7.5 16 7.5C14.1903 7.5 12.4549 7.67877 10.8466 8.00662C8.83766 8.41613 7.83321 8.62088 6.9166 9.79937C6 10.9779 6 12.3307 6 15.0365V16.9635C6 19.6693 6 21.0221 6.9166 22.2006C7.83321 23.3791 8.83766 23.5839 10.8466 23.9934C12.4549 24.3212 14.1903 24.5 16 24.5Z" stroke="#4F5563" stroke-width="1.5"/>
<path d="M19.9621 16.3129C19.8137 16.9187 19.0241 17.3538 17.4449 18.2241C15.7272 19.1705 14.8684 19.6438 14.1728 19.4615C13.9372 19.3997 13.7202 19.2911 13.538 19.1438C13 18.7089 13 17.8059 13 16C13 14.1941 13 13.2911 13.538 12.8562C13.7202 12.7089 13.9372 12.6003 14.1728 12.5385C14.8684 12.3562 15.7272 12.8294 17.4449 13.7759C19.0241 14.6462 19.8137 15.0813 19.9621 15.6871C20.0126 15.8933 20.0126 16.1067 19.9621 16.3129Z" stroke="#4F5563" stroke-width="1.5" stroke-linejoin="round"/>
</svg>
