<svg width="32" height="32" viewBox="0 0 32 32" fill="none" xmlns="http://www.w3.org/2000/svg">
<path d="M6.5 16C6.5 11.5217 6.5 9.28249 7.89124 7.89124C9.28249 6.5 11.5217 6.5 16 6.5C20.4783 6.5 22.7175 6.5 24.1088 7.89124C25.5 9.28249 25.5 11.5217 25.5 16C25.5 20.4783 25.5 22.7175 24.1088 24.1088C22.7175 25.5 20.4783 25.5 16 25.5C11.5217 25.5 9.28249 25.5 7.89124 24.1088C6.5 22.7175 6.5 20.4783 6.5 16Z" stroke="#4F5563" stroke-width="1.5" stroke-linejoin="round"/>
<path d="M20.9265 12.0264H17.9816C16.9378 12.0264 16.0894 12.8685 16.0817 13.9123L15.9964 25.4268M14.082 18.0017H18.8847" stroke="#4F5563" stroke-width="1.5" stroke-linecap="round" stroke-linejoin="round"/>
</svg>
